<?xml version="1.0" encoding="UTF-8"?>
<svg width="386px" height="52px" viewBox="0 0 386 52" version="1.1" xmlns="http://www.w3.org/2000/svg" xmlns:xlink="http://www.w3.org/1999/xlink">
    <!-- Generator: Sketch 64 (93537) - https://sketch.com -->
    <title>Hello,I’mAngie</title>
    <desc>Created with Sketch.</desc>
    <g id="Page-1" stroke="none" stroke-width="1" fill="none" fill-rule="evenodd">
        <g id="Artboard" transform="translate(-252.000000, -526.000000)" fill-rule="nonzero" stroke="#558FDC" stroke-width="2">
            <path d="M262.2,565 L262.2,550.2 L276,550.2 L276,565 L284.55,565 L284.55,529.6 L276,529.6 L276,543 L262.2,543 L262.2,529.6 L253.65,529.6 L253.65,565 L262.2,565 Z M303.85,565.8 C306.383333,565.8 308.608333,565.341667 310.525,564.425 C312.441667,563.508333 313.983333,562.2 315.15,560.5 L315.15,560.5 L309.45,556.9 C308.883333,557.666667 308.15,558.291667 307.25,558.775 C306.35,559.258333 305.25,559.5 303.95,559.5 C303.216667,559.5 302.508333,559.383333 301.825,559.15 C301.141667,558.916667 300.525,558.591667 299.975,558.175 C299.425,557.758333 298.975,557.266667 298.625,556.7 C298.275,556.133333 298.066667,555.5 298,554.8 L298,554.8 L316.05,554.8 C316.083333,554.5 316.1,554.183333 316.1,553.85 L316.1,553.85 L316.1,552.85 C316.1,550.716667 315.791667,548.816667 315.175,547.15 C314.558333,545.483333 313.7,544.066667 312.6,542.9 C311.5,541.733333 310.183333,540.841667 308.65,540.225 C307.116667,539.608333 305.433333,539.3 303.6,539.3 C301.7,539.3 299.933333,539.616667 298.3,540.25 C296.666667,540.883333 295.25,541.775 294.05,542.925 C292.85,544.075 291.9,545.475 291.2,547.125 C290.5,548.775 290.15,550.616667 290.15,552.65 C290.15,554.75 290.508333,556.616667 291.225,558.25 C291.941667,559.883333 292.925,561.258333 294.175,562.375 C295.425,563.491667 296.883333,564.341667 298.55,564.925 C300.216667,565.508333 301.983333,565.8 303.85,565.8 Z M308.55,549.7 L298,549.7 C298.033333,549.066667 298.2,548.458333 298.5,547.875 C298.8,547.291667 299.2,546.783333 299.7,546.35 C300.2,545.916667 300.783333,545.575 301.45,545.325 C302.116667,545.075 302.85,544.95 303.65,544.95 C305.283333,544.95 306.508333,545.416667 307.325,546.35 C308.141667,547.283333 308.55,548.4 308.55,549.7 L308.55,549.7 Z M329.6,565 L329.6,527.2 L321.3,527.2 L321.3,565 L329.6,565 Z M344.5,565 L344.5,527.2 L336.2,527.2 L336.2,565 L344.5,565 Z M363.55,565.8 C365.45,565.8 367.233333,565.483333 368.9,564.85 C370.566667,564.216667 372.033333,563.325 373.3,562.175 C374.566667,561.025 375.566667,559.625 376.3,557.975 C377.033333,556.325 377.4,554.483333 377.4,552.45 C377.4,550.416667 377.033333,548.583333 376.3,546.95 C375.566667,545.316667 374.566667,543.933333 373.3,542.8 C372.033333,541.666667 370.566667,540.8 368.9,540.2 C367.233333,539.6 365.45,539.3 363.55,539.3 C361.683333,539.3 359.908333,539.6 358.225,540.2 C356.541667,540.8 355.075,541.666667 353.825,542.8 C352.575,543.933333 351.583333,545.316667 350.85,546.95 C350.116667,548.583333 349.75,550.416667 349.75,552.45 C349.75,554.483333 350.116667,556.325 350.85,557.975 C351.583333,559.625 352.575,561.025 353.825,562.175 C355.075,563.325 356.541667,564.216667 358.225,564.85 C359.908333,565.483333 361.683333,565.8 363.55,565.8 Z M363.6,558.9 C362.633333,558.9 361.783333,558.716667 361.05,558.35 C360.316667,557.983333 359.7,557.491667 359.2,556.875 C358.7,556.258333 358.325,555.566667 358.075,554.8 C357.825,554.033333 357.7,553.25 357.7,552.45 C357.7,551.65 357.825,550.866667 358.075,550.1 C358.325,549.333333 358.691667,548.658333 359.175,548.075 C359.658333,547.491667 360.266667,547.016667 361,546.65 C361.733333,546.283333 362.583333,546.1 363.55,546.1 C364.516667,546.1 365.366667,546.283333 366.1,546.65 C366.833333,547.016667 367.45,547.491667 367.95,548.075 C368.45,548.658333 368.833333,549.333333 369.1,550.1 C369.366667,550.866667 369.5,551.65 369.5,552.45 C369.5,553.25 369.375,554.033333 369.125,554.8 C368.875,555.566667 368.5,556.258333 368,556.875 C367.5,557.491667 366.883333,557.983333 366.15,558.35 C365.416667,558.716667 364.566667,558.9 363.6,558.9 Z M386.55,571.2 L391.4,557 L383.55,557 L379.8,571.2 L386.55,571.2 Z M417.05,565 L417.05,529.6 L408.45,529.6 L408.45,565 L417.05,565 Z M429.05,543.15 L433.6,529.6 L426.35,529.6 L422.75,543.15 L429.05,543.15 Z M447.15,565 L447.15,551.5 C447.15,550 447.508333,548.733333 448.225,547.7 C448.941667,546.666667 449.95,546.15 451.25,546.15 C452.483333,546.15 453.383333,546.566667 453.95,547.4 C454.516667,548.233333 454.8,549.366667 454.8,550.8 L454.8,550.8 L454.8,565 L463,565 L463,551.55 C463,550.85 463.083333,550.175 463.25,549.525 C463.416667,548.875 463.675,548.3 464.025,547.8 C464.375,547.3 464.808333,546.9 465.325,546.6 C465.841667,546.3 466.45,546.15 467.15,546.15 C467.883333,546.15 468.475,546.291667 468.925,546.575 C469.375,546.858333 469.733333,547.233333 470,547.7 C470.266667,548.166667 470.45,548.725 470.55,549.375 C470.65,550.025 470.7,550.7 470.7,551.4 L470.7,551.4 L470.7,565 L478.9,565 L478.9,549.6 C478.9,548.433333 478.741667,547.241667 478.425,546.025 C478.108333,544.808333 477.6,543.708333 476.9,542.725 C476.2,541.741667 475.275,540.941667 474.125,540.325 C472.975,539.708333 471.55,539.4 469.85,539.4 C467.983333,539.4 466.4,539.783333 465.1,540.55 C463.8,541.316667 462.733333,542.35 461.9,543.65 C461.2,542.283333 460.225,541.233333 458.975,540.5 C457.725,539.766667 456.2,539.4 454.4,539.4 C453.466667,539.4 452.608333,539.516667 451.825,539.75 C451.041667,539.983333 450.333333,540.291667 449.7,540.675 C449.066667,541.058333 448.525,541.5 448.075,542 C447.625,542.5 447.25,543.016667 446.95,543.55 L446.95,543.55 L446.85,543.55 L446.85,540.1 L438.9,540.1 L438.9,565 L447.15,565 Z M502.1,565 L504.7,558.05 L518.4,558.05 L521.15,565 L530.65,565 L515.95,529.6 L507.65,529.6 L492.8,565 L502.1,565 Z M516.05,551.2 L507.15,551.2 L511.65,539.05 L516.05,551.2 Z M541.4,565 L541.4,551.5 C541.4,550.8 541.491667,550.125 541.675,549.475 C541.858333,548.825 542.133333,548.25 542.5,547.75 C542.866667,547.25 543.325,546.858333 543.875,546.575 C544.425,546.291667 545.066667,546.15 545.8,546.15 C546.533333,546.15 547.141667,546.291667 547.625,546.575 C548.108333,546.858333 548.483333,547.241667 548.75,547.725 C549.016667,548.208333 549.208333,548.766667 549.325,549.4 C549.441667,550.033333 549.5,550.7 549.5,551.4 L549.5,551.4 L549.5,565 L557.75,565 L557.75,549.6 C557.75,548.366667 557.591667,547.133333 557.275,545.9 C556.958333,544.666667 556.441667,543.575 555.725,542.625 C555.008333,541.675 554.066667,540.9 552.9,540.3 C551.733333,539.7 550.316667,539.4 548.65,539.4 C547.783333,539.4 546.966667,539.516667 546.2,539.75 C545.433333,539.983333 544.725,540.283333 544.075,540.65 C543.425,541.016667 542.858333,541.458333 542.375,541.975 C541.891667,542.491667 541.5,543.016667 541.2,543.55 L541.2,543.55 L541.1,543.55 L541.1,540.1 L533.15,540.1 L533.15,565 L541.4,565 Z M575.7,577 C577.9,577 579.908333,576.708333 581.725,576.125 C583.541667,575.541667 585.083333,574.658333 586.35,573.475 C587.616667,572.291667 588.6,570.8 589.3,569 C590,567.2 590.35,565.083333 590.35,562.65 L590.35,562.65 L590.35,540.1 L582.6,540.1 L582.6,543.3 L582.5,543.3 C581.633333,541.966667 580.483333,540.983333 579.05,540.35 C577.616667,539.716667 576.116667,539.4 574.55,539.4 C572.683333,539.4 571.016667,539.758333 569.55,540.475 C568.083333,541.191667 566.841667,542.15 565.825,543.35 C564.808333,544.55 564.033333,545.933333 563.5,547.5 C562.966667,549.066667 562.7,550.716667 562.7,552.45 C562.7,554.183333 562.966667,555.825 563.5,557.375 C564.033333,558.925 564.808333,560.283333 565.825,561.45 C566.841667,562.616667 568.083333,563.541667 569.55,564.225 C571.016667,564.908333 572.7,565.25 574.6,565.25 C576.266667,565.25 577.75,564.95 579.05,564.35 C580.35,563.75 581.383333,562.95 582.15,561.95 L582.15,561.95 L582.3,561.95 L582.3,563.45 C582.3,565.55 581.725,567.233333 580.575,568.5 C579.425,569.766667 577.65,570.4 575.25,570.4 C573.85,570.4 572.425,570.141667 570.975,569.625 C569.525,569.108333 568.2,568.316667 567,567.25 L567,567.25 L562.9,573.1 C564.6,574.366667 566.608333,575.333333 568.925,576 C571.241667,576.666667 573.5,577 575.7,577 Z M576.5,558.75 C575.566667,558.75 574.741667,558.575 574.025,558.225 C573.308333,557.875 572.7,557.408333 572.2,556.825 C571.7,556.241667 571.316667,555.566667 571.05,554.8 C570.783333,554.033333 570.65,553.233333 570.65,552.4 C570.65,551.533333 570.783333,550.716667 571.05,549.95 C571.316667,549.183333 571.7,548.516667 572.2,547.95 C572.7,547.383333 573.308333,546.933333 574.025,546.6 C574.741667,546.266667 575.566667,546.1 576.5,546.1 C577.433333,546.1 578.266667,546.266667 579,546.6 C579.733333,546.933333 580.366667,547.391667 580.9,547.975 C581.433333,548.558333 581.841667,549.233333 582.125,550 C582.408333,550.766667 582.55,551.566667 582.55,552.4 C582.55,553.266667 582.408333,554.083333 582.125,554.85 C581.841667,555.616667 581.441667,556.283333 580.925,556.85 C580.408333,557.416667 579.775,557.875 579.025,558.225 C578.275,558.575 577.433333,558.75 576.5,558.75 Z M601.05,536.65 C601.683333,536.65 602.291667,536.533333 602.875,536.3 C603.458333,536.066667 603.958333,535.75 604.375,535.35 C604.791667,534.95 605.125,534.475 605.375,533.925 C605.625,533.375 605.75,532.783333 605.75,532.15 C605.75,531.516667 605.625,530.925 605.375,530.375 C605.125,529.825 604.791667,529.35 604.375,528.95 C603.958333,528.55 603.458333,528.233333 602.875,528 C602.291667,527.766667 601.683333,527.65 601.05,527.65 C600.383333,527.65 599.766667,527.775 599.2,528.025 C598.633333,528.275 598.133333,528.6 597.7,529 C597.266667,529.4 596.933333,529.875 596.7,530.425 C596.466667,530.975 596.35,531.55 596.35,532.15 C596.35,533.383333 596.8,534.441667 597.7,535.325 C598.6,536.208333 599.716667,536.65 601.05,536.65 Z M605.15,565 L605.15,540.1 L596.95,540.1 L596.95,565 L605.15,565 Z M624.1,565.8 C626.633333,565.8 628.858333,565.341667 630.775,564.425 C632.691667,563.508333 634.233333,562.2 635.4,560.5 L635.4,560.5 L629.7,556.9 C629.133333,557.666667 628.4,558.291667 627.5,558.775 C626.6,559.258333 625.5,559.5 624.2,559.5 C623.466667,559.5 622.758333,559.383333 622.075,559.15 C621.391667,558.916667 620.775,558.591667 620.225,558.175 C619.675,557.758333 619.225,557.266667 618.875,556.7 C618.525,556.133333 618.316667,555.5 618.25,554.8 L618.25,554.8 L636.3,554.8 C636.333333,554.5 636.35,554.183333 636.35,553.85 L636.35,553.85 L636.35,552.85 C636.35,550.716667 636.041667,548.816667 635.425,547.15 C634.808333,545.483333 633.95,544.066667 632.85,542.9 C631.75,541.733333 630.433333,540.841667 628.9,540.225 C627.366667,539.608333 625.683333,539.3 623.85,539.3 C621.95,539.3 620.183333,539.616667 618.55,540.25 C616.916667,540.883333 615.5,541.775 614.3,542.925 C613.1,544.075 612.15,545.475 611.45,547.125 C610.75,548.775 610.4,550.616667 610.4,552.65 C610.4,554.75 610.758333,556.616667 611.475,558.25 C612.191667,559.883333 613.175,561.258333 614.425,562.375 C615.675,563.491667 617.133333,564.341667 618.8,564.925 C620.466667,565.508333 622.233333,565.8 624.1,565.8 Z M628.8,549.7 L618.25,549.7 C618.283333,549.066667 618.45,548.458333 618.75,547.875 C619.05,547.291667 619.45,546.783333 619.95,546.35 C620.45,545.916667 621.033333,545.575 621.7,545.325 C622.366667,545.075 623.1,544.95 623.9,544.95 C625.533333,544.95 626.758333,545.416667 627.575,546.35 C628.391667,547.283333 628.8,548.4 628.8,549.7 L628.8,549.7 Z" id="Hello,I’mAngie"></path>
        </g>
    </g>
</svg>
